<?xml version="1.0" encoding="UTF-8" standalone="no"?>
<!-- Created with Inkscape (http://www.inkscape.org/) -->

<svg
   width="124.91359mm"
   height="125.56721mm"
   viewBox="0 0 124.91359 125.56721"
   version="1.1"
   id="svg1"
   xml:space="preserve"
   xmlns="http://www.w3.org/2000/svg"
   xmlns:svg="http://www.w3.org/2000/svg"><defs
     id="defs1" /><g
     id="layer1"
     transform="translate(-40.7476,-93.696118)"><path
       style="fill:#5151e4;fill-opacity:1;stroke:none;stroke-width:0.587999"
       d="m 120.58385,156.53411 c 8.13594,-5.06015 8.06979,-19.28151 8.06979,-19.28151 0,0 -13.74767,-0.33603 -26.59062,10.08724 -2.282031,1.85209 18.52083,9.19427 18.52083,9.19427 z"
       id="path15" /><path
       style="fill:#7f7fe9;fill-opacity:1;stroke:none;stroke-width:0.587999"
       d="m 77.671828,139.00718 c -0.809466,13.24579 19.748383,35.54229 42.423312,17.47254 1.28103,-1.02086 -6.8562,1.31099 -18.08176,-8.91025 -5.851671,-5.32814 -18.123391,-8.56228 -24.341552,-8.56229 z"
       id="path14" /><g
       id="g9"
       transform="translate(5.4231,3.63967)"><path
         style="fill:#f5b618"
         d="m 76.078305,123.84086 0.09899,-0.24162 0.228414,-0.398 c 0.125628,-0.2189 0.327924,-0.57884 0.449548,-0.79987 0.121624,-0.22103 0.261738,-0.58634 0.313892,-0.55411 0.07626,-0.13853 0.310048,-0.39947 0.461779,-0.62985 1.029347,-1.49807 2.320601,-2.95047 3.663158,-4.12032 0.420075,-0.36604 0.926333,-0.81075 1.125018,-0.98825 0.335447,-0.29967 0.396275,-0.42513 0.597372,-0.57557 0.449202,-0.46977 1.205844,-0.77412 1.777368,-1.21921 0.177128,-0.0602 0.119987,-0.032 0.963813,-0.48732 0.80789,-0.43596 1.932189,-0.92941 2.891063,-1.34682 0.213233,-0.0582 0.316733,-0.14236 0.599933,-0.27465 0.05251,-0.007 0.192822,-0.0163 0.256159,-0.0688 0.367313,-0.2182 0.712637,-0.30258 1.205757,-0.42309 0.107454,-0.1295 0.130665,-1.20212 0.130665,-6.03814 0,-5.781759 -0.0034,-5.889768 -0.204829,-6.421786 C 90.3526,98.50365 89.936201,97.924732 88.999852,96.978121 87.552343,95.514746 87.451993,95.388888 87.451993,95.036815 86.6216,93.896056 86.194145,94.562696 87.236271,93.93033 c 0.416566,-0.978706 2.084136,0.150349 3.108383,0.155443 1.56007,-0.06333 3.401198,-1.44253 5.649124,-1.489382 2.607591,-0.05435 5.651262,3.117236 7.729052,1.506287 3.06899,-2.379459 5.0223,-0.457692 5.15076,0.210801 0.022,0.563786 -2.74982,3.098781 -3.16766,3.612136 -0.58164,0.714092 -0.87967,1.40049 -0.99059,2.281425 -0.0531,0.42196 -0.079,2.96192 -0.0609,5.98409 0.0345,5.77317 0.10101,5.45146 0.70964,5.672 0.16786,0.0608 0.2274,0.10273 0.20387,0.14081 -0.0235,0.0381 0.27105,0.0905 0.37786,0.11937 1.04742,0.39562 2.30827,0.95299 3.36924,1.68117 0,0.0571 0.0267,0.0772 0.0592,0.0446 0.16349,-0.16349 3.64466,2.11878 3.97691,2.36181 0.28589,0.20912 0.61558,0.27518 0.67953,0.52299 1.48294,0.65763 4.13424,4.12856 4.60653,5.34972 0.0222,0.0575 0.11467,0.28763 0.19343,0.35735 0.0607,0.23269 0.19429,0.54602 0.50842,0.92354 0.0518,0.15073 0.25132,0.46657 0.186,0.54019 -0.21207,0.23903 -0.45169,-0.18476 -0.63351,-0.29141 -0.22704,-0.13316 -1.70525,-0.97889 -3.08444,-1.80497 -0.49884,-0.29878 -1.62212,-0.9705 -2.49617,-1.49269 -0.87406,-0.52222 -1.569,-0.98275 -1.54432,-1.02344 0.0247,-0.0407 0.006,-0.0622 -0.0406,-0.0477 -0.15146,0.0465 -1.45192,-0.71509 -1.39057,-0.81435 0.0343,-0.0556 0.0111,-0.0662 -0.0552,-0.0252 -0.0629,0.0389 -0.20919,0.009 -0.32503,-0.0671 -0.30145,-0.19728 -3.73688,-2.21304 -5.01044,-2.93992 -0.59204,-0.3379 -1.96683,-1.14744 -3.05509,-1.79899 -3.659593,-2.191 -4.023682,-2.39171 -4.213458,-2.3228 -0.182556,0.0663 -1.331607,0.7144 -2.617949,1.47661 -0.516123,0.30583 -0.98703,0.56565 -1.04646,0.57739 -0.05943,0.0118 -0.183851,0.088 -0.276493,0.16945 -0.09264,0.0815 -0.330611,0.237 -0.528822,0.34565 -0.19821,0.10864 -1.219627,0.70377 -2.269814,1.32249 -1.050188,0.61873 -1.963136,1.12553 -2.028772,1.12622 -0.06564,6.9e-4 -0.09817,0.0224 -0.07231,0.0483 0.02587,0.0259 -0.414495,0.31389 -0.978584,0.64005 -0.564089,0.32616 -1.541164,0.89105 -2.171277,1.25531 -0.630112,0.36426 -1.256494,0.73515 -1.391959,0.82419 -1.067481,0.77127 -0.970772,0.61876 -1.140334,0.73495 -0.13625,0.21357 -2.034216,1.19001 -2.125972,1.24508 -0.08364,0.0412 -0.193636,0.13563 -0.251834,0.16388 -0.07359,0.0499 -0.127443,0.0787 -0.263223,0.14595 -0.04558,0.0209 -0.105706,0.0571 -0.14498,0.0759 -0.07385,0.0354 -0.28664,0.15436 -2.462626,1.41743 -0.603858,0.35051 -1.216475,0.7724 -1.374003,0.86679 -0.118776,-0.026 -0.54913,0.36488 -0.452525,0.12907 z m 23.609934,-16.01765 c 0.19251,-0.0915 0.471761,-0.34577 0.620561,-0.56504 0.23335,-0.34386 0.27055,-0.49057 0.27055,-1.06698 0,-0.55492 -0.0405,-0.72829 -0.23868,-1.02188 -0.701693,-1.03951 -2.342502,-1.04869 -3.049384,-0.0171 -0.443512,0.64726 -0.363396,1.75017 0.166009,2.28536 0.600105,0.60665 1.455009,0.75442 2.230944,0.3856 z m -2.700205,-7.40237 c 1.003041,-0.511715 1.538678,-1.346917 1.538678,-2.399214 0,-0.757908 -0.178535,-1.313855 -0.59697,-1.858921 -0.538809,-0.70187 -1.205603,-0.994918 -2.268655,-0.997048 -0.563416,-0.0011 -0.803713,0.0447 -1.118878,0.213374 -1.415897,0.757793 -1.953245,2.32949 -1.28115,3.747261 0.374411,0.789812 0.925502,1.250288 1.780939,1.488088 0.467086,0.12985 1.51677,0.0255 1.946036,-0.19354 z"
         id="path12" /><path
         style="fill:#050605"
         d="m 59.860706,215.51203 c -0.753215,-0.16099 -1.831105,-0.59436 -2.547575,-1.02425 -1.193756,-0.71627 -2.351718,-2.34022 -2.817632,-3.95151 -0.285585,-0.98765 -0.307023,-3.07526 -0.04161,-4.05214 0.50293,-1.85111 1.853918,-3.53267 3.449651,-4.29374 1.113938,-0.53128 1.746629,-0.69202 2.911884,-0.73976 1.389501,-0.0569 2.210876,0.10829 3.380963,0.6801 2.457839,1.20111 3.779409,3.44116 3.779409,6.40604 0,1.40693 -0.204224,2.3257 -0.763968,3.43698 -0.836262,1.66025 -2.303286,2.82906 -4.311781,3.43529 -0.710867,0.21456 -2.270125,0.2674 -3.039339,0.10299 z m 2.310488,-1.39806 c 0.278259,-0.0568 0.871104,-0.27984 1.317434,-0.49554 1.889827,-0.9133 2.954533,-2.76082 2.958209,-5.13321 0.0017,-1.08483 -0.164812,-1.80537 -0.633594,-2.74205 -0.918111,-1.83447 -2.618325,-2.88696 -4.66367,-2.88696 -2.808857,0 -4.924273,1.95398 -5.295731,4.89159 -0.388111,3.06932 1.460961,5.73869 4.436486,6.40465 0.374538,0.0838 1.383228,0.0632 1.880866,-0.0385 z m 40.727616,1.39668 c -0.84024,-0.17593 -2.11132,-0.69929 -2.786,-1.14711 -1.212761,-0.80499 -2.318543,-2.44055 -2.723765,-4.02872 -0.270242,-1.05915 -0.275316,-2.75773 -0.01132,-3.78994 0.313792,-1.22692 0.967567,-2.37392 1.859117,-3.2617 1.895658,-1.88765 4.942358,-2.4006 7.380698,-1.24264 1.82517,0.86677 3.0703,2.41712 3.55552,4.42707 0.20525,0.85023 0.30795,2.12044 0.18723,2.31577 -0.07,0.11322 -1.00329,0.13824 -5.83909,0.15655 -4.849722,0.0184 -5.760317,0.0429 -5.784447,0.15576 -0.06105,0.28559 0.28717,1.45584 0.623857,2.09656 0.413305,0.78652 1.17388,1.64336 1.83571,2.06805 0.25766,0.16535 0.80425,0.43484 1.21462,0.59886 0.69008,0.27583 0.83224,0.29827 1.89181,0.29871 0.95927,4e-4 1.24661,-0.0357 1.76622,-0.22195 0.98109,-0.35164 1.52193,-0.65718 2.05397,-1.16037 0.27196,-0.25721 0.53329,-0.46559 0.58072,-0.46307 0.11553,0.006 0.80229,0.87221 0.80229,1.01177 0,0.1882 -1.01077,1.04483 -1.64268,1.39218 -1.39073,0.76444 -3.49719,1.10143 -4.96446,0.79422 z m 5.9242,-7.86979 c 0.1058,-0.0671 0.0929,-0.21148 -0.0729,-0.81571 -0.47089,-1.71643 -1.30131,-2.77965 -2.72891,-3.49396 -1.66932,-0.83525 -3.4229,-0.68807 -5.10204,0.42822 -0.71232,0.47355 -1.356837,1.25149 -1.723399,2.08016 -0.208615,0.47161 -0.49025,1.69338 -0.417487,1.81111 0.06295,0.10187 9.883626,0.0923 10.044706,-0.01 z m 23.59613,7.9174 c -1.93039,-0.35639 -3.36491,-1.49779 -3.77184,-3.00111 -0.24782,-0.91552 -0.1675,-2.3038 0.17459,-3.01793 0.47143,-0.98411 1.37197,-1.70896 2.65897,-2.14022 0.62611,-0.2098 0.88946,-0.26269 1.94073,-0.38974 0.15753,-0.019 1.19666,-0.0376 2.30918,-0.0412 l 2.02277,-0.007 -0.0553,-0.35802 c -0.12294,-0.79523 -0.78637,-1.67947 -1.53027,-2.03958 -0.33747,-0.16337 -0.66482,-0.22292 -1.40677,-0.25592 -1.27873,-0.0569 -2.25546,0.18206 -3.38794,0.82878 -0.44868,0.25622 -0.84469,0.4489 -0.88002,0.42817 -0.0667,-0.0391 -1.18335,-2.07397 -1.38966,-2.53226 -0.11439,-0.25411 -0.10371,-0.26875 0.42962,-0.58943 1.87335,-1.12639 4.32194,-1.64893 6.60608,-1.40976 1.24482,0.13034 1.81445,0.29112 2.81673,0.79505 1.33833,0.67291 2.20078,1.79228 2.59875,3.37291 0.16828,0.66839 0.18516,1.7564 0.13578,8.75335 l -0.0106,1.50368 h -1.81396 -1.81396 l -0.001,-0.64443 c -0.002,-0.85254 -0.0824,-0.96783 -0.4151,-0.59447 -0.3449,0.38709 -1.12023,0.87256 -1.82702,1.14397 -0.46663,0.17919 -0.79408,0.22498 -1.76622,0.24701 -0.65637,0.0149 -1.38673,-0.009 -1.62302,-0.0523 z m 3.59351,-3.00334 c 0.55775,-0.2597 1.18416,-0.79115 1.45546,-1.23483 0.11459,-0.18741 0.20972,-0.58038 0.25198,-1.04096 l 0.0679,-0.73991 -1.89678,5.3e-4 c -2.04128,5.8e-4 -2.44628,0.0626 -2.8997,0.44413 -0.9326,0.78474 -0.67601,2.06407 0.52556,2.62038 0.59081,0.27353 1.85587,0.24852 2.49559,-0.0493 z m 15.79079,2.90352 c -0.83582,-0.22596 -2.00821,-0.86819 -2.40052,-1.31501 l -0.27625,-0.31463 -0.0103,0.36134 c -0.009,0.31058 -0.0283,0.60878 -0.0749,1.14898 -0.008,0.0911 -0.46131,0.11934 -1.91972,0.11934 h -1.90944 v -9.69037 -9.69037 h 2.00491 2.0049 v 3.25254 3.25254 l 0.29535,-0.22132 c 1.22027,-0.91437 1.85527,-1.17789 3.16618,-1.31396 3.08422,-0.32014 5.8062,1.2432 6.93634,3.98382 0.96787,2.34712 0.78302,5.48534 -0.44189,7.50175 -0.81418,1.34028 -2.18691,2.41484 -3.62938,2.84104 -0.99197,0.29309 -2.82075,0.33426 -3.7453,0.0843 z m 2.33549,-3.6193 c 2.2464,-1.03822 2.74016,-4.52425 0.90698,-6.40345 -0.23629,-0.24223 -0.64443,-0.54578 -0.90698,-0.67457 -0.41502,-0.20358 -0.60827,-0.23407 -1.47981,-0.23349 -0.90263,6e-4 -1.05101,0.0262 -1.49008,0.25727 -0.57167,0.30081 -1.28789,1.06208 -1.63956,1.74266 -0.20738,0.40134 -0.25546,0.64209 -0.28833,1.44365 -0.0518,1.26273 0.082,1.86699 0.58129,2.62682 0.96285,1.46514 2.73147,1.97366 4.31649,1.24111 z M 35.3245,206.24931 v -9.21687 h 0.811508 0.811509 v 4.15301 4.15302 h 5.871505 5.871504 v -4.15302 -4.15301 h 0.790145 0.790144 l -0.0025,9.18914 -0.0025,9.18915 h -0.763773 -0.763773 l -0.02484,-4.32009 -0.02484,-4.3201 H 42.81903 36.949471 l -0.02484,4.3201 -0.02484,4.32009 -0.787641,0.0277 -0.78764,0.0277 z m 36.374687,2.23554 v -6.97361 l 0.692169,0.0281 0.69217,0.0281 0.02672,1.21726 c 0.0147,0.6695 0.05914,1.21727 0.09875,1.21727 0.03962,0 0.144666,-0.12296 0.233438,-0.27324 0.305417,-0.51703 1.394025,-1.4373 2.056552,-1.73853 2.668139,-1.21315 5.765056,-0.43652 7.052821,1.76867 0.185404,0.31749 0.348654,0.58962 0.36278,0.60475 0.01413,0.0151 0.161316,-0.18387 0.32709,-0.44221 0.369407,-0.57567 1.148894,-1.32415 1.738166,-1.66901 1.553213,-0.90901 3.956008,-1.09823 5.509467,-0.43388 0.76406,0.32675 1.601383,0.95959 1.941577,1.46741 0.175883,0.26255 0.346238,0.49884 0.378566,0.52509 0.178821,0.14523 0.496875,0.97014 0.619787,1.6075 0.130691,0.67769 0.165965,3.08181 0.136455,9.30014 l -0.0035,0.7399 h -0.716037 -0.716037 v -4.25407 c 0,-2.6341 -0.04026,-4.51552 -0.105725,-4.94065 -0.288466,-1.87333 -1.599609,-3.22135 -3.298847,-3.39161 -2.428913,-0.24339 -4.258111,0.85363 -5.000738,2.99906 -0.277173,0.80075 -0.372036,2.38652 -0.375294,6.27365 l -0.0028,3.32165 -0.739905,-0.0279 -0.739905,-0.0279 -0.02141,-4.43943 c -0.01332,-2.76159 -0.06161,-4.65593 -0.127776,-5.01226 -0.217522,-1.17143 -1.023572,-2.25914 -2.048049,-2.76371 -0.494036,-0.24332 -0.705473,-0.28687 -1.560887,-0.32151 -1.205256,-0.0488 -1.961831,0.128 -2.760573,0.64513 -0.692086,0.44809 -1.08517,0.89784 -1.489982,1.70477 -0.594968,1.18597 -0.631506,1.54032 -0.631506,6.12444 v 4.1103 H 72.46296 71.699187 Z m 42.071813,6.91061 c -0.0354,-0.0354 -0.0643,-4.18235 -0.0643,-9.21552 v -9.15122 l 2.0623,0.0257 2.0623,0.0257 0.0271,2.67321 c 0.0149,1.47026 0.0321,4.7891 0.0381,7.37518 l 0.0109,4.70198 h 4.58475 4.58474 l -0.026,1.79009 -0.026,1.7901 -6.59485,0.0245 c -3.62717,0.0135 -6.62378,-0.004 -6.65914,-0.0398 z M 94.74708,190.11229 c -0.90376,-0.19664 -1.647222,-0.62286 -2.295716,-1.3161 -0.467302,-0.49955 -0.615168,-0.74041 -0.791833,-1.28984 -0.302084,-0.93948 -0.258426,-2.12098 0.107382,-2.90604 0.368265,-0.79033 0.998143,-1.41908 1.784961,-1.78175 1.09838,-0.50627 1.753722,-0.5931 4.879367,-0.6465 l 2.816409,-0.0481 -0.0123,-0.83542 c -0.0371,-2.51396 -1.383738,-3.82777 -3.923356,-3.82777 -1.582262,0 -3.043786,0.44523 -4.298763,1.30956 -0.275688,0.18988 -0.515704,0.32734 -0.533368,0.30547 -0.01766,-0.0219 -0.167364,-0.28013 -0.332667,-0.57392 l -0.300549,-0.53416 0.595238,-0.44198 c 1.244524,-0.92409 3.075141,-1.49131 4.82488,-1.49498 3.001565,-0.006 4.887895,1.33705 5.407095,3.85067 0.12344,0.59759 0.14911,1.53606 0.14911,5.45172 v 4.72987 h -0.71604 -0.71604 v -1.09792 c 0,-0.60386 -0.0322,-1.09677 -0.0716,-1.09536 -0.0394,0.001 -0.17206,0.16252 -0.29484,0.35802 -0.50612,0.8059 -1.975608,1.73891 -3.030622,1.92422 -0.782131,0.13737 -2.531224,0.11599 -3.246718,-0.0397 z m 2.959197,-1.23797 c 1.009931,-0.19324 1.498637,-0.43502 2.171997,-1.0746 1.087126,-1.03258 1.417116,-1.80915 1.417116,-3.33493 0,-0.97417 -0.003,-0.98639 -0.24087,-1.04614 -0.13248,-0.0333 -1.410611,-0.0398 -2.840285,-0.0145 -2.855989,0.0505 -3.125933,0.0946 -4.075789,0.66499 -0.730942,0.43897 -1.084333,1.02955 -1.133163,1.8937 -0.03032,0.53663 0.0039,0.73697 0.198181,1.16142 0.326272,0.71267 0.744218,1.15439 1.374702,1.45291 0.882168,0.41769 1.961941,0.52025 3.128111,0.29713 z m 33.599813,1.23839 c -0.37589,-0.0682 -0.91291,-0.19856 -1.1934,-0.28966 -0.70172,-0.22794 -1.91883,-0.86561 -2.17731,-1.14075 l -0.21354,-0.22731 0.30931,-0.58033 c 0.17012,-0.31918 0.33775,-0.58033 0.3725,-0.58033 0.0348,0 0.33694,0.17788 0.67152,0.39529 1.25028,0.81241 2.53332,1.16892 4.20321,1.16791 1.86742,-0.001 2.98494,-0.44653 3.53748,-1.40987 0.43905,-0.76549 0.34727,-1.71996 -0.2244,-2.33357 -0.49088,-0.52691 -1.87658,-0.98375 -4.6883,-1.54563 -0.68548,-0.13699 -1.68459,-0.50315 -2.21574,-0.81205 -1.11063,-0.64591 -1.74319,-2.15351 -1.46113,-3.48235 0.16374,-0.7714 0.47769,-1.32122 1.07938,-1.89027 0.92427,-0.87413 2.02482,-1.25063 3.87724,-1.32638 1.38767,-0.0567 2.34064,0.09 3.50443,0.53954 0.75311,0.29092 1.49769,0.72915 1.43938,0.84715 -0.0175,0.0354 -0.15391,0.31143 -0.30314,0.61335 -0.14923,0.30193 -0.30991,0.54897 -0.35707,0.54897 -0.0472,0 -0.31448,-0.12909 -0.59404,-0.28687 -0.27957,-0.15778 -0.82669,-0.40481 -1.21582,-0.54896 -0.66211,-0.24528 -0.80248,-0.26178 -2.18732,-0.25709 -1.29885,0.004 -1.54575,0.031 -2.01895,0.21799 -1.89655,0.74925 -2.28062,2.68671 -0.74635,3.76493 0.61155,0.42977 0.97543,0.54498 3.09945,0.98131 0.89266,0.18338 1.83782,0.40255 2.10037,0.48706 0.67092,0.21595 1.56936,0.7304 1.92533,1.10245 0.91243,0.95364 1.11792,2.53133 0.50073,3.84435 -0.47526,1.01108 -1.77928,1.90138 -3.21994,2.19838 -0.85233,0.17572 -2.84274,0.17715 -3.80388,0.003 z m -12.96552,-0.0637 c -0.0252,-0.0711 -0.0607,-2.19143 -0.0789,-4.71188 -0.028,-3.88622 -0.0562,-4.64965 -0.18529,-5.02358 -0.53472,-1.54862 -1.35663,-2.32696 -2.84824,-2.69726 -1.80031,-0.44694 -3.65869,0.0439 -4.78906,1.26479 -1.21263,1.30979 -1.3073,1.82571 -1.3117,7.14821 l -0.003,4.03368 h -0.76377 -0.76377 v -6.47874 c 0,-3.56331 -0.0264,-6.67144 -0.0587,-6.90695 l -0.0587,-0.4282 0.56337,-0.0589 c 1.00779,-0.10533 0.98609,-0.13249 0.98609,1.23393 0,0.65453 0.0391,1.18226 0.0877,1.18226 0.0482,0 0.17904,-0.14782 0.2907,-0.32849 0.34066,-0.5512 1.25027,-1.30754 1.97826,-1.64494 1.27224,-0.58962 2.77483,-0.75182 4.28613,-0.46266 1.02151,0.19545 1.84587,0.60507 2.52897,1.25663 0.68053,0.64913 1.09664,1.34056 1.36376,2.26614 0.18402,0.63761 0.19821,0.97853 0.23002,5.52473 l 0.0339,4.84518 h -0.5706 c -0.31382,0 -0.63818,0.0259 -0.7208,0.0576 -0.0843,0.0323 -0.17034,9e-4 -0.19606,-0.0716 z m -60.961173,-9.14621 -0.0028,-9.17038 h 4.523296 c 4.903357,0 5.51948,0.0477 6.807934,0.52756 1.182785,0.44047 2.296821,1.55576 2.618752,2.62169 0.169667,0.56179 0.219065,2.11951 0.08521,2.68713 -0.271365,1.15076 -0.836885,1.91057 -1.936929,2.60237 -0.583609,0.36702 -0.620383,0.47717 -0.188367,0.56422 0.495986,0.0999 1.575201,0.78078 2.035787,1.28432 0.773374,0.8455 1.140631,1.86484 1.140631,3.16588 0,2.40294 -1.204631,3.88759 -3.771129,4.64774 -0.5122,0.1517 -1.141038,0.17338 -5.941255,0.20475 l -5.368425,0.0351 z m 10.546545,7.64242 c 1.176271,-0.26639 2.254069,-1.04414 2.659657,-1.91923 0.162725,-0.35109 0.199806,-0.62158 0.202865,-1.47981 0.0033,-0.9381 -0.02295,-1.10711 -0.246375,-1.58354 -0.325428,-0.69394 -0.832385,-1.19101 -1.563744,-1.53325 -1.148033,-0.53723 -1.540113,-0.57866 -5.943208,-0.628 l -4.033675,-0.0452 v 3.69354 3.69353 l 4.224619,-0.0452 c 2.620804,-0.0281 4.405038,-0.0861 4.699861,-0.15284 z m -0.868108,-8.73806 c 0.889053,-0.20702 1.359542,-0.4318 1.888548,-0.90223 0.518927,-0.46148 0.81521,-1.01873 0.935892,-1.76022 0.105676,-0.6493 -0.02338,-1.65646 -0.275624,-2.15089 -0.221261,-0.43371 -0.901721,-1.0774 -1.416628,-1.34009 -0.916565,-0.4676 -1.361812,-0.5136 -5.393564,-0.55724 l -3.794996,-0.0411 v 3.50221 3.50221 l 3.699525,-0.0498 c 2.920346,-0.0393 3.837967,-0.082 4.356847,-0.20288 z m 9.195379,9.89779 c -0.02723,-0.19691 -0.05239,-3.31341 -0.05591,-6.92556 -0.0056,-5.74517 0.01147,-6.5744 0.136378,-6.62233 0.07853,-0.0301 0.421211,-0.025 0.761505,0.0115 l 0.618716,0.0663 0.003,1.30514 c 0.0027,1.14808 0.01917,1.28216 0.137099,1.11419 0.637829,-0.90845 1.0218,-1.33939 1.476661,-1.65728 0.722824,-0.50517 1.791708,-0.87796 2.703295,-0.94283 l 0.739905,-0.0526 v 0.77741 0.77742 H 82.28645 c -1.113685,0 -2.491738,0.58802 -3.213769,1.37133 -0.475228,0.51556 -0.80592,1.14824 -1.087735,2.08105 -0.201837,0.66808 -0.213342,0.89468 -0.247657,4.87752 l -0.03599,4.17688 h -0.699294 -0.699293 z m 9.744084,-6.55268 -0.0251,-6.9107 0.703109,-0.0637 c 0.38671,-0.035 0.718797,-0.048 0.737971,-0.0288 0.01918,0.0192 0.04681,3.15766 0.06141,6.9744 l 0.02655,6.93954 H 86.761816 86.0224 Z m 37.542983,-6.3968 c 0,-0.0203 0.14597,-0.61105 0.32439,-1.31273 0.17841,-0.70169 0.35376,-1.49747 0.38966,-1.76841 0.0629,-0.47449 0.0541,-0.50085 -0.23823,-0.71604 -0.38117,-0.2806 -0.57129,-0.64091 -0.57129,-1.08266 0,-0.72742 0.48461,-1.1934 1.24113,-1.1934 1.02182,0 1.48886,0.79351 1.20004,2.03889 -0.15557,0.6708 -0.9206,2.98699 -1.21072,3.66554 -0.17131,0.40067 -0.1795,0.40576 -0.65423,0.40576 -0.26442,0 -0.48075,-0.0166 -0.48075,-0.037 z m -37.447546,-3.64495 c -0.27304,-0.14815 -0.478048,-0.47336 -0.588605,-0.93372 -0.100729,-0.41943 0.266248,-1.09794 0.689476,-1.27477 0.880234,-0.36779 1.735758,0.22649 1.735758,1.20572 0,0.31158 -0.06792,0.46307 -0.34526,0.77005 -0.309964,0.3431 -0.390486,0.38177 -0.787641,0.37834 -0.24331,-0.002 -0.559987,-0.0676 -0.703728,-0.14562 z m 9.56983,-12.36573 c -2.114242,-0.1581 -4.673731,-0.70105 -6.657873,-1.41236 -4.245457,-1.52199 -7.68601,-3.80262 -10.74058,-7.11956 -1.817884,-1.97403 -3.089651,-3.7882 -4.186031,-5.97137 -1.893599,-3.77064 -2.76198,-7.37452 -2.75986,-11.45375 0.0023,-4.338 0.777726,-7.67471 2.663253,-11.45944 1.788583,-3.59014 4.259733,-6.60321 7.408084,-9.03266 1.552439,-1.19795 4.705,-2.96944 6.444334,-3.6212 0.39382,-0.14757 0.77174,-0.31801 0.839822,-0.37876 0.09856,-0.0879 0.122997,-1.14711 0.119913,-5.19812 -0.0038,-5.05301 -0.0053,-5.09004 -0.211781,-5.434027 -0.11435,-0.190491 -0.778231,-0.926338 -1.475292,-1.635215 -1.499357,-1.524773 -1.795858,-2.031501 -1.78778,-3.055362 0.0063,-0.795181 0.181615,-1.140162 1.195413,-2.351959 1.055266,-1.261365 1.899666,-2.069808 2.444989,-2.340875 l 0.449998,-0.223684 h 8.401502 8.401505 l 0.47861,0.252695 c 0.66108,0.349035 2.51053,2.297279 3.14052,3.30827 0.55119,0.884545 0.53933,2.096536 -0.0285,2.910088 -0.15466,0.221597 -0.83651,0.968291 -1.51522,1.659321 -0.67871,0.691029 -1.30557,1.407196 -1.39302,1.591481 -0.14318,0.301717 -0.15654,0.840697 -0.13429,5.416207 0.0214,4.40145 0.0439,5.09146 0.16792,5.15826 0.0788,0.0424 0.80912,0.36763 1.62301,0.72272 5.12773,2.23711 8.98878,5.56417 11.94809,10.29565 1.6743,2.67695 2.94733,6.13477 3.47973,9.45169 0.23829,1.48459 0.29003,5.2213 0.0944,6.82141 -0.96469,7.89243 -5.11592,14.49893 -11.89435,18.92933 -3.18801,2.0837 -7.59414,3.67752 -11.26565,4.07512 -1.379331,0.14937 -3.917326,0.19582 -5.250936,0.0961 z m 5.441886,-2.2265 c 2.48794,-0.40714 3.55382,-0.67957 5.34641,-1.36654 1.57655,-0.60418 2.4624,-1.0304 3.83288,-1.84416 1.46151,-0.86782 3.12697,-2.10566 2.51937,-1.8725 -0.19043,0.0731 -1.50633,-0.21301 -2.6766,-0.58191 -2.74325,-0.86475 -5.72032,-2.1869 -7.76407,-3.4481 -0.43706,-0.26971 -0.83581,-0.49038 -0.88611,-0.49038 -0.0503,0 -0.11504,-0.0614 -0.14386,-0.13653 -0.0288,-0.0751 -0.16709,-0.17717 -0.30728,-0.22683 -0.14019,-0.0496 -0.58983,-0.33146 -0.99921,-0.62623 -0.409366,-0.29477 -0.838989,-0.5858 -0.954712,-0.64672 -0.115723,-0.0609 -0.231886,-0.13686 -0.258141,-0.16875 -0.02625,-0.0319 -0.584763,-0.46388 -1.241131,-0.95997 -0.656367,-0.49608 -1.250167,-0.95762 -1.319554,-1.02564 -0.06939,-0.068 -0.157951,-0.12366 -0.196809,-0.12366 -0.03886,0 -0.160378,-0.0836 -0.270045,-0.18577 -0.109668,-0.10217 -0.515169,-0.40184 -0.901115,-0.66593 -0.385946,-0.26409 -0.938012,-0.64236 -1.226813,-0.84059 -1.457557,-1.00046 -5.424724,-3.08719 -6.49207,-3.41483 -0.131274,-0.0403 -0.410528,-0.15209 -0.620566,-0.24844 -0.388489,-0.1782 -2.802408,-1.06545 -3.150563,-1.15801 -0.105019,-0.0279 -0.70649,-0.20048 -1.336603,-0.38347 -2.587175,-0.75134 -4.83496,-1.2097 -7.574885,-1.54467 -0.813302,-0.0994 -0.995848,-0.0985 -1.035593,0.005 -0.107079,0.27904 0.402011,2.89447 0.926728,4.76102 0.457036,1.62579 1.227452,3.41105 2.254376,5.22398 0.395118,0.69754 1.627787,2.51343 1.942254,2.8612 0.08009,0.0886 0.446349,0.51819 0.813914,0.95471 0.589,0.69951 2.2532,2.3515 2.772412,2.75208 0.102965,0.0794 0.552388,0.42641 0.998718,0.77105 0.446329,0.34464 1.133725,0.81991 1.527545,1.05615 0.393821,0.23624 0.974969,0.58412 1.29144,0.77307 1.067597,0.63739 3.105079,1.50365 4.580065,1.94727 1.361901,0.4096 2.847023,0.70389 4.964524,0.98375 0.973644,0.12868 4.507694,0.0466 5.585094,-0.12968 z m 14.40228,-7.38788 c 0.75426,-0.77377 1.50478,-1.64323 1.88605,-2.18495 1.91171,-2.71625 2.60618,-4.04598 3.50637,-6.71377 0.75137,-2.22673 1.11188,-4.08411 1.27695,-6.57897 l 0.0531,-0.80293 -1.00506,0.0615 c -1.36069,0.0833 -3.50754,0.39226 -5.41423,0.7793 -1.50134,0.30476 -4.92221,1.2291 -5.63568,1.52281 -0.18378,0.0756 -1.06451,0.42456 -1.95717,0.77535 -2.0489,0.80515 -4.07296,1.79255 -5.96697,2.91086 -1.72017,1.01566 -4.22043,2.66852 -4.269476,2.82244 -0.02784,0.0874 0.662367,0.66209 2.009116,1.6729 1.96817,1.47721 4.23115,2.85372 6.33295,3.85214 2.56231,1.21719 6.53958,2.39737 8.18158,2.42772 0.443,0.008 0.48717,-0.0158 1.00245,-0.5444 z m -19.132489,-8.7962 c 0.07388,-0.11953 1.543117,-1.14531 1.749392,-1.22137 0.09042,-0.0333 0.185881,-0.0855 0.212136,-0.11586 0.345804,-0.40019 3.548381,-2.29135 5.728301,-3.38263 1.84795,-0.9251 3.99299,-1.81424 5.8936,-2.44295 l 1.12356,-0.37166 0.0248,-4.44685 0.0248,-4.44685 h 3.72245 c 2.04735,0 3.72165,-0.0322 3.72067,-0.0716 -9.9e-4,-0.0394 -0.48431,-0.35706 -1.07406,-0.70596 -1.28348,-0.7593 -3.31859,-1.95795 -4.89113,-2.8808 -0.63012,-0.36978 -1.81158,-1.06658 -2.62547,-1.54845 -0.8139,-0.48186 -1.73759,-1.02596 -2.05264,-1.20911 -0.31506,-0.18314 -1.30319,-0.76152 -2.19585,-1.28529 -0.89266,-0.52376 -1.92375,-1.11719 -2.29132,-1.31873 -0.36756,-0.20154 -0.99052,-0.56786 -1.38434,-0.81404 -1.48464,-0.92806 -4.138717,-2.48186 -4.239325,-2.48186 -0.112681,0 -1.473457,0.74973 -2.634629,1.45157 -0.393821,0.23803 -1.360471,0.81084 -2.148112,1.2729 -0.787641,0.46207 -2.570573,1.5135 -3.962072,2.33652 -1.391499,0.82302 -3.067026,1.80977 -3.723393,2.19277 -1.694664,0.98886 -4.284011,2.51132 -4.67811,2.75059 -0.514324,0.31227 -2.352399,1.38696 -2.648227,1.54838 -0.578774,0.3158 -0.979694,0.59221 -0.979694,0.67543 0,0.0517 1.506159,0.0877 3.674862,0.0877 h 3.674863 l 0.02466,5.36635 0.02466,5.36635 1.002452,0.37063 c 0.551349,0.20384 1.131339,0.42596 1.288867,0.4936 0.157528,0.0677 0.673075,0.2826 1.14566,0.47768 0.472584,0.19508 1.387378,0.60842 2.032874,0.91853 0.645496,0.31011 1.211165,0.56383 1.257043,0.56383 0.04588,0 0.09773,0.0322 0.115237,0.0716 0.0175,0.0394 0.289597,0.19879 0.604654,0.35424 0.817027,0.40312 1.999246,1.10285 2.036728,1.20549 0.0175,0.0479 0.0716,0.0872 0.120224,0.0872 0.109159,0 1.688454,1.03413 1.762661,1.1542 0.07019,0.11356 0.492778,0.11245 0.563193,-0.001 z m -2.525638,-17.04873 v -1.67076 h 1.575282 1.575281 l 0.01478,0.45349 c 0.01414,0.43377 0.01063,1.77263 -0.0066,2.53 l -0.0082,0.35802 h -1.575281 -1.575282 z m 4.632168,0.97858 c -0.03423,-0.38069 -0.04863,-1.12179 -0.03201,-1.64689 l 0.03022,-0.95471 1.599149,-0.0262 1.59915,-0.0262 v 1.67306 1.67306 h -1.56714 -1.567132 z m -4.632168,-5.46575 v -1.67075 h 1.575282 1.575281 v 1.67075 1.67075 h -1.575281 -1.575282 z m 4.741757,1.60711 c -0.03501,-0.035 -0.06365,-0.78685 -0.06365,-1.67076 v -1.6071 h 1.57528 1.57529 v 1.67075 1.67075 h -1.51164 c -0.831399,0 -1.540276,-0.0286 -1.575282,-0.0636 z m -16.221194,9.5392 -0.02489,-4.08141 H 78.334468 74.32466 l -0.119967,0.47736 c -0.25033,0.99608 -0.503186,2.44101 -0.689467,3.9399 -0.262605,2.11304 -0.280435,1.96891 0.260472,2.10547 0.249419,0.063 0.797188,0.1572 1.217263,0.20941 0.774622,0.0963 0.945218,0.12095 2.05264,0.29701 1.178662,0.18738 3.487551,0.659 4.343959,0.88731 0.472584,0.12599 0.891927,0.23296 0.931873,0.23771 0.03995,0.005 0.06143,-1.82798 0.04774,-4.07276 z m 32.285324,1.92778 c 1.43075,-0.32301 4.07136,-0.76116 5.44881,-0.90411 0.60386,-0.0627 1.29125,-0.14262 1.52754,-0.17769 l 0.42963,-0.0637 -0.0299,-0.47466 c -0.049,-0.77873 -0.28816,-2.21831 -0.5587,-3.36267 l -0.25393,-1.07406 h -4.04205 -4.04206 v 3.20944 3.20943 l 0.21481,-0.0578 c 0.11815,-0.0318 0.70576,-0.16865 1.30581,-0.30412 z M 77.904842,122.85002 c 2.044305,-1.19083 4.338861,-2.54833 5.489619,-3.24776 0.630112,-0.38298 1.639725,-0.98311 2.243583,-1.33362 1.986338,-1.15296 3.363014,-1.95794 5.298675,-3.09826 1.050187,-0.61867 2.038319,-1.20001 2.195847,-1.29186 0.157528,-0.0918 0.78048,-0.45891 1.384338,-0.81571 1.179489,-0.69691 2.42452,-1.40713 2.952361,-1.68415 0.325337,-0.17074 0.329194,-0.17028 0.811508,0.0978 0.71498,0.39733 1.411221,0.80683 3.608937,2.1226 1.08826,0.65155 2.46305,1.46109 3.05509,1.79899 0.59204,0.3379 1.9142,1.1082 2.93813,1.71176 1.02393,0.60357 2.24836,1.31928 2.72094,1.59047 0.47259,0.27119 1.56812,0.92204 2.43453,1.44632 2.33631,1.41376 4.05803,2.42741 4.91679,2.8947 0.42007,0.22859 0.91337,0.51558 1.09622,0.63777 0.18284,0.12219 0.36931,0.22216 0.41438,0.22216 0.1169,0 -0.62154,-1.32823 -1.30041,-2.33906 -1.15141,-1.71441 -2.75058,-3.49384 -4.38417,-4.87837 -1.94258,-1.6464 -4.93755,-3.36754 -7.5471,-4.33715 -0.72424,-0.2691 -1.29254,-0.53674 -1.35178,-0.63664 -0.0562,-0.0948 -0.12879,-0.34421 -0.16125,-0.55424 -0.0975,-0.63096 -0.0965,-10.25576 0.001,-11.01447 0.14508,-1.126933 0.53087,-1.795303 1.68798,-2.92439 1.28389,-1.252803 1.75913,-1.838116 1.75913,-2.166606 0,-0.259789 -0.72035,-1.202703 -1.88223,-2.463768 l -0.48379,-0.525094 -7.71972,-0.02884 c -5.266124,-0.01967 -7.83088,0.0035 -8.069457,0.07296 -0.259666,0.07558 -0.580675,0.353464 -1.246456,1.079023 -1.199057,1.306716 -1.315693,1.470849 -1.315693,1.851486 0,0.353072 0.09953,0.477954 1.547859,1.94216 0.936349,0.946611 1.352748,1.525529 1.636555,2.275293 0.201399,0.532059 0.204829,0.639772 0.204829,6.433056 0,5.11161 -0.01897,5.91041 -0.143207,6.03147 -0.07877,0.0767 -0.70135,0.34091 -1.383523,0.58703 -1.150289,0.41502 -3.106645,1.32692 -4.143246,1.93126 -0.367954,0.21451 -1.057142,0.66956 -2.347242,1.5498 -0.115439,0.0788 -0.335052,0.25682 -0.48803,0.39568 -0.152977,0.13887 -0.621839,0.55136 -1.041914,0.91665 -1.422258,1.23677 -2.761196,2.76698 -3.861037,4.41261 -0.539769,0.80762 -1.342166,2.2064 -1.342166,2.33973 0,0.0381 0.161108,-0.0276 0.358018,-0.14596 0.19691,-0.11837 0.852084,-0.50303 1.455942,-0.85478 z"
         id="path9" /></g></g></svg>
